{"title":"September Dawn 2007 DVDrip English Klam","uid":6521967,"size":1679378206,"categoryP":"video","categoryS":"movies","magnet":"?xt=urn:btih:3a94567763701be20b65c106b91c2e168d482226&amp;dn=September+Dawn+2007+DVDrip+English+Klam&amp;tr=udp%3A%2F%2Ftracker.openbittorrent.com%3A80&amp;tr=udp%3A%2F%2Fopen.demonii.com%3A1337&amp;tr=udp%3A%2F%2Ftracker.coppersurfer.tk%3A6969&amp;tr=udp%3A%2F%2Fexodus.desync.com%3A6969","seeders":1,"leechers":0,"uploader":"Klambake","files":-1,"time":1310028574,"description":"With: Jon Voight, Trent Ford and Tamara Hope\n\nGebaseerd op een waargebeurde tragedie die plaatsvond in Utah, VS in 1857. Een grote groep pioniers, rondreizend op hun wagens, werd vermoord door de plaatselijke Mormonen. Tegen de achtergrond van deze ellende ontwikkelt zich een liefdesverhaal tussen twee jonge geliefden, de ene kind van Mormonen en de ander kind van de pioniers.\n\nA love story set during a tense encounter between a wagon train of settlers and a renegade Mormon group.\n\n------------------ Dutch Friends ------------------\nYou can find my Friends at: http://www.Film-Test.nl \n------ They got my dutchs subs ---- and more ------\n\nGeneral:\n\nComplete name                    : September Dawn\\September Dawn.avi\nFormat                           : AVI\nFormat/Info                      : Audio Video Interleave\nFile size                        : 1.56 GiB\nDuration                         : 1h 51mn\nOverall bit rate                 : 2 008 Kbps\n\nVideo:\n\nFormat                           : MPEG-4 Visual\nFormat profile                   : Simple@L3\nFormat settings, BVOP            : No\nFormat settings, QPel            : No\nFormat settings, GMC             : No warppoints\nFormat settings, Matrix          : Default (H.263)\nCodec ID                         : XVID\nCodec ID/Hint                    : XviD\nDuration                         : 1h 51mn\nBit rate                         : 1 549 Kbps\nWidth                            : 652 pixels\nHeight                           : 352 pixels\nDisplay aspect ratio             : 1.852\nFrame rate                       : 23.976 fps\nColor space                      : YUV\nChroma subsampling               : 4:2:0\nBit depth                        : 8 bits\nScan type                        : Progressive\nBits/(Pixel*Frame)               : 0.282\nStream size                      : 1.21 GiB (77%)\nWriting library                  : XviD 1.1.2 (UTC 2006-11-01)\n\nAudio:\n\nFormat                           : AC-3\nFormat/Info                      : Audio Coding 3\nMode extension                   : CM (complete main)\nCodec ID                         : 2000\nDuration                         : 1h 51mn\nBit rate mode                    : Constant\nBit rate                         : 448 Kbps\nChannel(s)                       : 6 channels\nChannel positions                : Front: L C R, Side: L R, LFE\nSampling rate                    : 48.0 KHz\nBit depth                        : 16 bits\nStream size                      : 357 MiB (22%)\nAlignment                        : Aligned on interleaves\nInterleave, duration             : 32 ms (0.77 video frame)\nInterleave, preload duration     : 1088 ms\n\n","torrent":{"xt":"urn:btih:3a94567763701be20b65c106b91c2e168d482226","amp;dn":"September+Dawn+2007+DVDrip+English+Klam","amp;tr":["udp%3A%2F%2Ftracker.openbittorrent.com%3A80","udp%3A%2F%2Fopen.demonii.com%3A1337","udp%3A%2F%2Ftracker.coppersurfer.tk%3A6969","udp%3A%2F%2Fexodus.desync.com%3A6969"],"infoHash":"3a94567763701be20b65c106b91c2e168d482226","infoHashBuffer":{"type":"Buffer","data":[58,148,86,119,99,112,27,226,11,101,193,6,185,28,46,22,141,72,34,38]},"announce":[],"urlList":[]}}